<?xml version="1.0" standalone="no"?>
<!DOCTYPE svg PUBLIC "-//W3C//DTD SVG 20010904//EN"
 "http://www.w3.org/TR/2001/REC-SVG-20010904/DTD/svg10.dtd">
<svg version="1.0" xmlns="http://www.w3.org/2000/svg"
 width="702.000000pt" height="702.000000pt" viewBox="0 0 702.000000 702.000000"
 preserveAspectRatio="xMidYMid meet">

<g transform="translate(0.000000,702.000000) scale(0.100000,-0.100000)"
fill="#000000" stroke="none">
<path d="M3210 6640 c-377 -39 -763 -152 -1110 -325 -139 -70 -424 -247 -558
-348 -215 -161 -303 -252 -572 -587 -156 -196 -329 -491 -405 -695 -20 -55
-47 -127 -60 -160 -37 -97 -88 -274 -106 -370 -52 -279 -68 -413 -75 -655 -7
-216 0 -302 47 -562 58 -319 193 -683 364 -979 204 -354 456 -655 760 -907
322 -268 774 -504 1160 -605 505 -133 970 -146 1466 -41 122 25 413 115 520
159 96 41 330 159 422 213 435 258 829 650 1115 1108 60 96 195 363 245 484
82 199 155 480 193 735 21 148 29 456 15 620 -31 370 -111 688 -254 1010 -234
528 -615 1004 -1052 1316 -108 77 -337 215 -450 271 -269 134 -739 271 -1060
308 -123 15 -501 21 -605 10z m362 -380 c49 -14 134 -92 163 -149 49 -97 41
-230 -18 -318 -37 -55 -107 -112 -148 -120 l-29 -5 0 -592 c0 -325 3 -615 7
-645 l6 -53 131 134 c72 74 145 141 163 148 l32 14 3 321 3 320 125 122 c69
67 146 139 172 160 47 38 48 39 47 94 -2 85 24 151 87 218 68 74 133 104 224
105 165 0 297 -128 308 -299 4 -63 1 -80 -23 -134 -35 -77 -110 -148 -184
-175 -98 -35 -224 -13 -293 51 l-27 26 -135 -129 -134 -129 -1 -300 -1 -300
-242 -246 c-134 -135 -249 -248 -255 -250 -10 -3 -13 -390 -14 -1781 l-1
-1778 -78 0 c-72 0 -78 2 -84 23 -3 12 -6 810 -6 1773 l0 1750 -245 248 -245
249 0 306 0 306 -124 124 -124 124 -49 -30 c-63 -40 -111 -55 -181 -56 -83 -1
-134 17 -189 68 -71 63 -107 146 -107 245 0 64 5 84 32 136 81 159 241 214
396 138 111 -54 176 -153 184 -284 l5 -75 133 -128 c73 -70 143 -144 155 -163
21 -35 22 -49 27 -344 l5 -309 158 -157 c88 -87 161 -155 164 -153 2 3 5 297
5 654 l1 649 -44 23 c-61 30 -105 77 -136 143 -36 77 -37 202 -2 274 44 89
109 144 196 167 37 10 137 4 187 -11z m1867 -871 c145 -63 222 -219 177 -357
-35 -105 -114 -186 -192 -199 l-34 -6 0 -189 c0 -200 -7 -235 -50 -258 -13 -7
-154 -10 -417 -10 l-397 1 -260 -260 -261 -261 -3 -171 -4 -171 33 23 c41 29
331 318 476 474 l111 119 473 1 472 0 15 43 c8 26 35 65 66 97 66 67 132 90
240 83 121 -8 203 -67 259 -186 27 -58 29 -70 24 -135 -18 -218 -210 -355
-403 -289 -28 10 -64 29 -81 42 -42 35 -93 103 -102 137 l-7 28 -440 6 -439 5
-59 -65 c-111 -123 -401 -407 -553 -542 l-52 -46 -3 -1331 -3 -1331 -37 -6
c-21 -3 -55 -8 -76 -11 l-39 -5 -13 418 c-10 313 -11 521 -4 828 9 392 4 932
-13 1505 -4 146 -7 333 -5 415 l3 150 304 303 305 303 380 -3 380 -3 0 145 0
145 -55 29 c-99 52 -149 136 -149 256 0 119 50 207 151 267 77 45 193 50 282
12z m-3712 6 c69 -20 133 -72 168 -136 27 -49 30 -62 30 -149 0 -84 -3 -101
-27 -146 -31 -59 -95 -118 -145 -135 l-34 -11 3 -144 3 -144 379 -5 378 -5
117 -118 c64 -66 175 -175 246 -243 72 -69 157 -156 191 -194 l61 -70 7 -155
c5 -116 2 -197 -10 -325 -15 -146 -18 -313 -20 -1190 -3 -971 -13 -1598 -27
-1612 -4 -3 -37 0 -74 8 l-68 14 1 935 c1 514 3 1109 4 1321 l3 386 -44 41
c-41 38 -539 537 -590 592 l-24 25 -437 -3 -438 -3 -18 -42 c-22 -50 -107
-131 -160 -154 -24 -11 -66 -17 -122 -17 -74 -1 -92 3 -136 26 -119 63 -185
199 -164 336 31 194 212 309 391 247 93 -33 199 -140 199 -203 l0 -24 148 6
c81 3 294 9 473 12 l326 6 68 -78 c114 -131 545 -567 553 -560 4 4 7 82 8 174
l0 166 -191 190 c-105 105 -228 226 -273 269 l-82 78 -408 -1 c-243 0 -413 4
-422 10 -12 8 -16 48 -20 227 l-5 217 -39 10 c-58 13 -138 95 -165 169 -74
202 64 417 270 417 36 0 88 -7 116 -15z m759 -206 c96 -46 144 -122 144 -229
0 -77 -27 -135 -90 -194 -55 -51 -112 -71 -182 -63 -117 14 -210 108 -233 239
-18 99 69 232 175 268 66 23 103 19 186 -21z m2183 10 c69 -34 104 -74 127
-144 54 -157 -74 -335 -241 -335 -95 0 -160 39 -213 130 -23 39 -27 56 -27
125 0 62 5 89 22 120 67 125 204 168 332 104z m-2816 -1383 c41 -17 113 -95
138 -149 26 -58 24 -130 -5 -192 -27 -59 -46 -77 -106 -104 -82 -36 -109 -36
-184 -1 -96 45 -123 72 -142 138 -36 122 18 246 131 305 37 20 125 22 168 3z
m3416 -5 c49 -25 105 -89 121 -136 36 -108 -69 -323 -166 -341 -66 -12 -101 3
-174 74 -84 83 -107 143 -90 229 16 73 64 143 120 171 57 28 136 30 189 3z
m694 -377 c56 -19 140 -92 167 -144 41 -80 41 -210 0 -289 -23 -46 -104 -120
-166 -150 -54 -28 -151 -31 -208 -7 -97 40 -186 136 -186 200 0 15 -6 28 -12
31 -26 8 -828 12 -828 4 0 -4 91 -99 203 -211 111 -112 214 -217 228 -234 l26
-32 54 14 c134 36 285 -39 349 -171 78 -162 -6 -370 -175 -435 -75 -28 -188
-24 -252 8 -47 25 -104 85 -134 144 -43 85 -36 231 16 310 l25 37 -88 83
c-107 101 -292 291 -292 300 0 3 -28 30 -62 58 -60 51 -62 51 -68 29 -6 -23
-7 -326 -2 -755 l2 -211 45 -6 c88 -13 178 -76 219 -156 41 -78 39 -216 -3
-299 -39 -77 -147 -152 -218 -152 -19 0 -20 -9 -26 -152 -4 -83 -7 -217 -7
-297 l0 -147 -67 -18 c-38 -10 -74 -20 -80 -23 -10 -4 -13 65 -13 326 l0 330
-26 18 c-107 74 -145 138 -152 254 -4 68 -1 84 22 135 37 79 72 123 114 141
l35 15 -7 534 c-8 619 -19 554 107 669 l72 66 380 -7 c209 -4 433 -3 498 1
l118 7 13 32 c28 68 104 132 186 157 44 13 145 10 193 -7z m-4748 -26 c59 -31
105 -77 135 -135 l21 -42 490 0 489 1 49 -36 c27 -20 64 -53 81 -73 63 -71 62
-57 62 -619 l0 -513 48 -40 c33 -28 60 -63 82 -108 28 -57 32 -77 32 -137 -2
-109 -55 -210 -139 -262 l-46 -29 7 -337 c5 -247 4 -338 -4 -338 -7 0 -35 11
-64 24 -29 14 -60 27 -69 30 -14 4 -18 32 -25 203 -4 109 -8 244 -7 301 l1
102 -27 0 c-35 1 -104 33 -153 72 -60 47 -100 138 -100 226 -1 39 7 91 16 120
33 99 146 192 233 192 l40 0 4 388 c7 562 6 595 -9 600 -11 3 -221 -201 -426
-416 l-69 -72 29 -53 c27 -49 29 -59 29 -162 0 -102 -2 -113 -27 -157 -37 -63
-84 -107 -138 -132 -64 -29 -197 -29 -260 0 -61 28 -127 97 -159 164 -55 116
-22 281 72 366 65 59 119 78 223 80 l91 2 211 215 c117 118 212 221 212 229 0
11 -13 13 -67 7 -38 -5 -210 -5 -384 -2 l-316 6 -17 -55 c-21 -65 -80 -138
-143 -174 -60 -36 -159 -44 -232 -19 -70 23 -161 107 -192 177 -67 151 4 337
156 410 54 26 68 29 135 25 55 -3 88 -10 125 -29z"/>
<path d="M3380 6084 c-62 -53 -76 -122 -40 -194 25 -49 64 -70 129 -70 148 0
193 201 61 271 -51 28 -112 25 -150 -7z"/>
<path d="M2344 5821 c-50 -30 -76 -75 -77 -131 -2 -150 197 -193 273 -58 28
49 23 95 -16 145 -46 61 -122 79 -180 44z"/>
<path d="M4462 5826 c-61 -33 -83 -146 -43 -212 38 -62 134 -81 197 -39 85 55
85 194 1 245 -37 23 -119 26 -155 6z"/>
<path d="M5250 5242 c-99 -49 -107 -188 -14 -248 31 -21 108 -24 141 -6 12 7
34 28 49 48 54 71 26 166 -60 205 -51 23 -72 24 -116 1z"/>
<path d="M5791 4178 c-58 -39 -76 -72 -76 -138 0 -44 5 -66 21 -87 34 -46 82
-73 130 -73 58 0 107 47 130 126 15 54 15 56 -8 101 -29 58 -63 84 -119 90
-35 4 -51 0 -78 -19z"/>
<path d="M1565 5242 c-87 -54 -105 -170 -37 -235 99 -95 273 -7 248 126 -16
87 -142 152 -211 109z"/>
<path d="M1035 4171 c-80 -35 -120 -155 -75 -228 54 -90 197 -85 245 7 34 66
10 167 -49 205 -30 20 -93 28 -121 16z"/>
<path d="M2315 5039 c-47 -41 -49 -92 -6 -138 24 -26 37 -31 74 -31 38 0 49 5
71 31 47 55 28 136 -36 158 -48 17 -64 14 -103 -20z"/>
<path d="M4491 5056 c-12 -13 -25 -42 -28 -65 -5 -36 -2 -44 30 -76 46 -46 91
-48 136 -6 68 64 22 171 -73 171 -32 0 -48 -6 -65 -24z"/>
<path d="M1727 3679 c-26 -15 -59 -86 -51 -112 3 -12 18 -34 32 -49 36 -39 84
-38 123 1 77 77 -11 214 -104 160z"/>
<path d="M5133 3676 c-29 -22 -46 -76 -34 -108 13 -35 58 -68 91 -68 38 0 80
50 80 95 0 68 -85 118 -137 81z"/>
<path d="M5789 3277 c-99 -66 -104 -177 -13 -257 29 -25 43 -30 86 -30 47 0
54 3 89 40 85 89 69 199 -34 249 -56 27 -86 26 -128 -2z"/>
<path d="M5236 2437 c-55 -31 -79 -78 -72 -144 8 -93 70 -150 154 -140 38 4
53 12 83 45 42 44 65 107 55 146 -10 40 -64 94 -104 106 -53 14 -72 12 -116
-13z"/>
<path d="M4470 1840 c-48 -29 -72 -65 -78 -115 -14 -131 96 -212 213 -155 115
56 127 186 23 263 -40 30 -115 33 -158 7z"/>
<path d="M1030 3263 c-77 -28 -115 -147 -70 -220 31 -51 62 -66 125 -61 82 7
135 66 135 151 0 86 -108 160 -190 130z"/>
<path d="M1553 2429 c-17 -11 -42 -40 -53 -65 -77 -157 123 -290 239 -159 43
49 49 93 20 152 -41 81 -138 116 -206 72z"/>
<path d="M2320 1841 c-50 -26 -80 -74 -80 -128 0 -96 55 -153 146 -153 65 0
111 29 142 90 35 70 9 146 -66 188 -48 27 -96 28 -142 3z"/>
</g>
</svg>
